<?xml version="1.0" encoding="UTF-8" standalone="no" ?>
<!DOCTYPE svg PUBLIC "-//W3C//DTD SVG 1.1//EN" "http://www.w3.org/Graphics/SVG/1.1/DTD/svg11.dtd">
<svg xmlns="http://www.w3.org/2000/svg" xmlns:xlink="http://www.w3.org/1999/xlink" version="1.1" width="1080" height="1080" viewBox="0 0 1080 1080" xml:space="preserve">
<desc>Created with Fabric.js 5.2.4</desc>
<defs>
</defs>
<g transform="matrix(1 0 0 1 540 540)" id="3de4b354-5470-46a2-afc5-e2b1bfdba7ec"  >
</g>
<g transform="matrix(1 0 0 1 540 540)" id="3575cc86-c5d9-41af-8906-f18ead4cfa51"  >
<rect style="stroke: none; stroke-width: 1; stroke-dasharray: none; stroke-linecap: butt; stroke-dashoffset: 0; stroke-linejoin: miter; stroke-miterlimit: 4; fill: rgb(255,255,255); fill-rule: nonzero; opacity: 1; visibility: hidden;" vector-effect="non-scaling-stroke"  x="-540" y="-540" rx="0" ry="0" width="1080" height="1080" />
</g>
<g transform="matrix(0.13 0 0 -0.13 398.58 497.32)"  >
<path style="stroke: none; stroke-width: 1; stroke-dasharray: none; stroke-linecap: butt; stroke-dashoffset: 0; stroke-linejoin: miter; stroke-miterlimit: 4; fill: rgb(0,0,0); fill-rule: nonzero; opacity: 1;" vector-effect="non-scaling-stroke"  transform=" translate(-1105.59, -862.29)" d="M 943 1091 C 882 1088 830 1083 827 1080 C 821 1073 846 723 855 688 C 863 655 882 650 996 650 C 1101 650 1196 675 1245 714 C 1292 752 1269 755 1192 721 C 1098 680 1063 681 1010 725 C 986 745 966 759 963 757 C 961 755 964 741 969 726 C 978 704 977 700 962 700 C 952 700 934 707 921 716 C 899 732 898 737 904 809 C 908 851 915 920 921 963 L 932 1040 L 1107 1040 C 1275 1040 1282 1039 1304 1017 C 1323 998 1328 978 1334 911 C 1338 866 1338 800 1335 765 L 1328 702 L 1279 681 C 1252 669 1210 657 1185 653 C 1160 650 1137 643 1134 639 C 1126 625 1196 630 1285 648 L 1365 665 L 1378 790 C 1390 908 1386 1075 1372 1084 C 1358 1092 1051 1097 943 1091 z" stroke-linecap="round" />
</g>
<g transform="matrix(0.13 0 0 -0.13 316.1 541.91)"  >
<path style="stroke: none; stroke-width: 1; stroke-dasharray: none; stroke-linecap: butt; stroke-dashoffset: 0; stroke-linejoin: miter; stroke-miterlimit: 4; fill: rgb(0,0,0); fill-rule: nonzero; opacity: 1;" vector-effect="non-scaling-stroke"  transform=" translate(-491.86, -521.11)" d="M 609 1012 C 549 971 238 686 249 682 C 256 680 281 691 305 706 C 383 758 578 901 590 915 C 597 923 608 930 614 930 C 621 930 648 866 674 788 C 724 638 743 597 796 512 L 830 460 L 808 451 C 748 429 730 429 730 450 C 730 468 726 467 684 437 C 641 407 633 405 552 405 C 476 406 459 409 419 433 C 394 448 370 460 367 460 C 363 460 361 446 362 428 C 365 396 365 396 305 388 C 189 372 189 372 261 479 C 355 618 380 662 379 695 C 379 724 377 723 307 650 C 249 590 223 551 176 460 C 82 272 1 55 19 37 C 43 13 270 10 489 30 C 547 36 655 40 731 40 C 807 40 880 44 894 50 C 941 68 922 80 848 80 C 766 80 765 88 846 104 C 878 110 905 121 908 129 C 911 139 891 141 806 138 C 748 137 700 138 700 141 C 700 152 774 169 848 176 C 922 183 931 188 905 210 C 892 221 855 218 702 197 C 473 164 80 137 80 153 C 80 172 119 264 140 294 L 167 334 L 456 332 L 745 329 L 853 359 C 913 375 964 391 967 394 C 970 397 944 430 909 467 C 846 534 842 541 746 778 C 691 912 643 1023 640 1025 C 636 1027 622 1022 609 1012 z" stroke-linecap="round" />
</g>
<g transform="matrix(0.13 0 0 -0.13 412.79 490.01)"  >
<path style="stroke: none; stroke-width: 1; stroke-dasharray: none; stroke-linecap: butt; stroke-dashoffset: 0; stroke-linejoin: miter; stroke-miterlimit: 4; fill: rgb(0,0,0); fill-rule: nonzero; opacity: 1;" vector-effect="non-scaling-stroke"  transform=" translate(-1206.48, -921.81)" d="M 1162 962 C 1151 954 1152 945 1169 911 C 1188 875 1193 871 1209 882 C 1230 895 1265 949 1257 957 C 1247 967 1175 971 1162 962 z" stroke-linecap="round" />
</g>
<g transform="matrix(0.13 0 0 -0.13 391.26 492.95)"  >
<path style="stroke: none; stroke-width: 1; stroke-dasharray: none; stroke-linecap: butt; stroke-dashoffset: 0; stroke-linejoin: miter; stroke-miterlimit: 4; fill: rgb(0,0,0); fill-rule: nonzero; opacity: 1;" vector-effect="non-scaling-stroke"  transform=" translate(-1045.06, -899.67)" d="M 1002 938 C 972 908 1003 850 1048 850 C 1067 850 1100 883 1100 902 C 1100 907 1091 919 1080 930 C 1058 952 1020 956 1002 938 z" stroke-linecap="round" />
</g>
<g transform="matrix(0.13 0 0 -0.13 333.75 524.84)"  >
<path style="stroke: none; stroke-width: 1; stroke-dasharray: none; stroke-linecap: butt; stroke-dashoffset: 0; stroke-linejoin: miter; stroke-miterlimit: 4; fill: rgb(0,0,0); fill-rule: nonzero; opacity: 1;" vector-effect="non-scaling-stroke"  transform=" translate(-613.67, -660.52)" d="M 572 698 C 539 665 581 604 632 612 C 665 617 679 663 655 690 C 635 712 591 717 572 698 z" stroke-linecap="round" />
</g>
<g transform="matrix(0.13 0 0 -0.13 546.76 539.96)"  >
<path style="stroke: none; stroke-width: 1; stroke-dasharray: none; stroke-linecap: butt; stroke-dashoffset: 0; stroke-linejoin: miter; stroke-miterlimit: 4; fill: rgb(0,0,0); fill-rule: nonzero; opacity: 1;" vector-effect="non-scaling-stroke"  transform=" translate(-2212.11, -545)" d="M 2156 659 C 2137 644 2130 629 2130 605 C 2130 567 2147 546 2193 526 C 2241 506 2255 486 2234 465 C 2221 452 2207 450 2175 455 C 2140 460 2131 458 2126 444 C 2117 420 2137 410 2198 410 C 2241 410 2256 415 2275 435 C 2324 483 2300 540 2218 574 C 2157 599 2177 648 2244 636 C 2270 631 2279 633 2284 646 C 2293 669 2274 680 2224 680 C 2197 680 2173 673 2156 659 z" stroke-linecap="round" />
</g>
<g transform="matrix(0.13 0 0 -0.13 583.45 539.9)"  >
<path style="stroke: none; stroke-width: 1; stroke-dasharray: none; stroke-linecap: butt; stroke-dashoffset: 0; stroke-linejoin: miter; stroke-miterlimit: 4; fill: rgb(0,0,0); fill-rule: nonzero; opacity: 1;" vector-effect="non-scaling-stroke"  transform=" translate(-2487.5, -545.45)" d="M 2454 661 C 2407 632 2390 602 2390 548 C 2390 450 2434 408 2530 412 C 2577 415 2585 418 2585 434 C 2585 451 2578 454 2538 455 C 2463 456 2427 505 2450 576 C 2464 617 2507 643 2553 638 C 2579 636 2585 639 2585 655 C 2585 684 2498 688 2454 661 z" stroke-linecap="round" />
</g>
<g transform="matrix(0.13 0 0 -0.13 624.27 539.96)"  >
<path style="stroke: none; stroke-width: 1; stroke-dasharray: none; stroke-linecap: butt; stroke-dashoffset: 0; stroke-linejoin: miter; stroke-miterlimit: 4; fill: rgb(0,0,0); fill-rule: nonzero; opacity: 1;" vector-effect="non-scaling-stroke"  transform=" translate(-2793.95, -545)" d="M 2689 676 C 2687 674 2686 613 2688 541 L 2691 410 L 2716 410 C 2739 410 2740 413 2740 465 L 2740 520 L 2795 520 L 2850 520 L 2850 464 C 2850 410 2851 409 2876 412 L 2901 415 L 2901 545 L 2901 675 L 2876 678 C 2851 681 2850 680 2850 625 L 2850 569 L 2798 572 L 2745 575 L 2742 628 C 2739 675 2737 680 2716 680 C 2704 680 2691 678 2689 676 z" stroke-linecap="round" />
</g>
<g transform="matrix(0.13 0 0 -0.13 667.74 539.96)"  >
<path style="stroke: none; stroke-width: 1; stroke-dasharray: none; stroke-linecap: butt; stroke-dashoffset: 0; stroke-linejoin: miter; stroke-miterlimit: 4; fill: rgb(0,0,0); fill-rule: nonzero; opacity: 1;" vector-effect="non-scaling-stroke"  transform=" translate(-3120, -545)" d="M 3010 590 C 3010 449 3034 410 3122 410 C 3205 410 3230 452 3230 598 L 3230 680 L 3200 680 L 3170 680 L 3170 581 C 3170 476 3160 450 3120 450 C 3080 450 3070 476 3070 581 L 3070 680 L 3040 680 L 3010 680 L 3010 590 z" stroke-linecap="round" />
</g>
<g transform="matrix(0.13 0 0 -0.13 707.26 539.91)"  >
<path style="stroke: none; stroke-width: 1; stroke-dasharray: none; stroke-linecap: butt; stroke-dashoffset: 0; stroke-linejoin: miter; stroke-miterlimit: 4; fill: rgb(0,0,0); fill-rule: nonzero; opacity: 1;" vector-effect="non-scaling-stroke"  transform=" translate(-3415.8, -545.34)" d="M 3334 667 C 3332 660 3331 600 3332 534 L 3335 415 L 3418 412 C 3500 409 3500 409 3500 435 C 3500 459 3497 460 3445 460 L 3390 460 L 3390 570 L 3390 680 L 3365 680 C 3351 680 3337 674 3334 667 z" stroke-linecap="round" />
</g>
<g transform="matrix(0.13 0 0 -0.13 741.74 539.96)"  >
<path style="stroke: none; stroke-width: 1; stroke-dasharray: none; stroke-linecap: butt; stroke-dashoffset: 0; stroke-linejoin: miter; stroke-miterlimit: 4; fill: rgb(0,0,0); fill-rule: nonzero; opacity: 1;" vector-effect="non-scaling-stroke"  transform=" translate(-3674.38, -545)" d="M 3590 545 L 3590 410 L 3676 410 C 3759 410 3761 411 3758 433 C 3755 452 3748 455 3703 458 L 3650 461 L 3650 496 L 3650 530 L 3700 530 C 3743 530 3750 533 3750 550 C 3750 567 3743 570 3700 570 C 3651 570 3650 571 3650 600 C 3650 629 3651 630 3700 630 C 3747 630 3750 632 3750 655 C 3750 680 3749 680 3670 680 L 3590 680 L 3590 545 z" stroke-linecap="round" />
</g>
<g transform="matrix(0.13 0 0 -0.13 313.08 531.76)"  >
<path style="stroke: none; stroke-width: 1; stroke-dasharray: none; stroke-linecap: butt; stroke-dashoffset: 0; stroke-linejoin: miter; stroke-miterlimit: 4; fill: rgb(0,0,0); fill-rule: nonzero; opacity: 1;" vector-effect="non-scaling-stroke"  transform=" translate(-458.78, -608.36)" d="M 453 663 C 437 660 427 648 420 619 C 414 597 406 572 403 563 C 397 549 404 548 454 553 C 486 556 514 560 516 562 C 517 564 516 588 512 615 C 505 666 498 672 453 663 z" stroke-linecap="round" />
</g>
<g transform="matrix(0.13 0 0 -0.13 456.19 546.2)"  >
<path style="stroke: none; stroke-width: 1; stroke-dasharray: none; stroke-linecap: butt; stroke-dashoffset: 0; stroke-linejoin: miter; stroke-miterlimit: 4; fill: rgb(0,0,0); fill-rule: nonzero; opacity: 1;" vector-effect="non-scaling-stroke"  transform=" translate(-1544.23, -498.5)" d="M 1003 612 C 993 606 999 579 1026 497 C 1057 405 1065 390 1083 390 C 1095 390 1186 385 1285 380 C 1529 367 1926 398 2007 437 C 2035 450 2090 508 2090 524 C 2090 527 2076 537 2060 545 C 2030 560 2028 560 2010 538 C 1999 525 1991 512 1990 508 C 1990 498 1931 468 1920 472 C 1915 474 1929 499 1951 528 C 1973 557 1988 585 1985 590 C 1971 612 1950 597 1920 545 C 1871 460 1859 459 1885 544 C 1904 607 1904 620 1883 620 C 1872 619 1846 592 1820 553 C 1787 504 1767 484 1745 478 C 1656 455 1543 449 1333 455 L 1110 463 L 1110 536 C 1110 602 1108 610 1091 610 C 1081 610 1060 612 1044 615 C 1028 618 1009 617 1003 612 z" stroke-linecap="round" />
</g>
<g transform="matrix(0.13 0 0 -0.13 628.66 578.3)"  >
<path style="stroke: none; stroke-width: 1; stroke-dasharray: none; stroke-linecap: butt; stroke-dashoffset: 0; stroke-linejoin: miter; stroke-miterlimit: 4; fill: rgb(0,0,0); fill-rule: nonzero; opacity: 1;" vector-effect="non-scaling-stroke"  transform=" translate(-2825, -260)" d="M 2800 275 C 2790 263 2790 257 2800 245 C 2807 237 2818 230 2825 230 C 2832 230 2843 237 2850 245 C 2860 257 2860 263 2850 275 C 2843 283 2832 290 2825 290 C 2818 290 2807 283 2800 275 z" stroke-linecap="round" />
</g>
<g transform="matrix(0.13 0 0 -0.13 406.41 593.86)"  >
<path style="stroke: none; stroke-width: 1; stroke-dasharray: none; stroke-linecap: butt; stroke-dashoffset: 0; stroke-linejoin: miter; stroke-miterlimit: 4; fill: rgb(0,0,0); fill-rule: nonzero; opacity: 1;" vector-effect="non-scaling-stroke"  transform=" translate(-1160.44, -140.63)" d="M 1101 263 C 1005 215 1014 43 1115 10 C 1184 -13 1250 18 1276 85 C 1304 160 1277 240 1213 266 C 1171 284 1143 283 1101 263 z M 1206 209 C 1232 180 1232 100 1206 71 C 1162 22 1090 65 1090 140 C 1090 215 1162 258 1206 209 z" stroke-linecap="round" />
</g>
<g transform="matrix(0.13 0 0 -0.13 453.77 593.95)"  >
<path style="stroke: none; stroke-width: 1; stroke-dasharray: none; stroke-linecap: butt; stroke-dashoffset: 0; stroke-linejoin: miter; stroke-miterlimit: 4; fill: rgb(0,0,0); fill-rule: nonzero; opacity: 1;" vector-effect="non-scaling-stroke"  transform=" translate(-1514.9, -140)" d="M 1448 273 L 1420 269 L 1420 140 L 1420 12 L 1453 7 C 1496 -1 1566 13 1590 35 C 1618 60 1616 106 1586 133 C 1562 155 1562 156 1581 168 C 1608 185 1606 236 1578 254 C 1552 270 1488 280 1448 273 z M 1535 224 C 1544 215 1549 203 1547 196 C 1542 181 1492 157 1480 165 C 1469 172 1466 223 1477 233 C 1489 245 1518 240 1535 224 z M 1531 120 C 1559 105 1556 62 1526 48 C 1489 32 1470 44 1470 83 C 1470 131 1488 142 1531 120 z" stroke-linecap="round" />
</g>
<g transform="matrix(0.13 0 0 -0.13 536.98 593.62)"  >
<path style="stroke: none; stroke-width: 1; stroke-dasharray: none; stroke-linecap: butt; stroke-dashoffset: 0; stroke-linejoin: miter; stroke-miterlimit: 4; fill: rgb(0,0,0); fill-rule: nonzero; opacity: 1;" vector-effect="non-scaling-stroke"  transform=" translate(-2139, -142.52)" d="M 2073 273 L 2040 269 L 2040 139 L 2040 10 L 2070 10 C 2100 10 2100 11 2100 64 C 2100 115 2101 118 2123 112 C 2150 106 2157 96 2170 48 C 2179 15 2185 10 2209 10 L 2238 10 L 2224 56 C 2216 82 2205 109 2199 116 C 2191 126 2193 136 2209 156 C 2265 227 2195 287 2073 273 z M 2151 230 C 2191 208 2165 150 2116 150 C 2104 150 2100 160 2100 188 C 2100 241 2112 251 2151 230 z" stroke-linecap="round" />
</g>
<g transform="matrix(0.13 0 0 -0.13 701.32 593.78)"  >
<path style="stroke: none; stroke-width: 1; stroke-dasharray: none; stroke-linecap: butt; stroke-dashoffset: 0; stroke-linejoin: miter; stroke-miterlimit: 4; fill: rgb(0,0,0); fill-rule: nonzero; opacity: 1;" vector-effect="non-scaling-stroke"  transform=" translate(-3371.41, -141.33)" d="M 3330 263 C 3258 226 3269 159 3356 121 C 3393 104 3401 96 3398 78 C 3395 57 3390 55 3343 55 C 3306 56 3289 52 3285 41 C 3276 17 3298 6 3356 6 C 3405 6 3415 9 3436 33 C 3480 84 3464 128 3389 164 C 3359 178 3345 191 3345 205 C 3345 222 3352 225 3390 225 C 3425 225 3437 229 3443 244 C 3452 268 3452 268 3405 275 C 3377 279 3355 276 3330 263 z" stroke-linecap="round" />
</g>
<g transform="matrix(0.13 0 0 -0.13 495.16 593.97)"  >
<path style="stroke: none; stroke-width: 1; stroke-dasharray: none; stroke-linecap: butt; stroke-dashoffset: 0; stroke-linejoin: miter; stroke-miterlimit: 4; fill: rgb(0,0,0); fill-rule: nonzero; opacity: 1;" vector-effect="non-scaling-stroke"  transform=" translate(-1825, -140)" d="M 1740 140 L 1740 10 L 1825 10 C 1903 10 1910 12 1910 30 C 1910 48 1903 50 1855 50 L 1800 50 L 1800 85 L 1800 120 L 1851 120 C 1898 120 1901 122 1898 143 C 1895 162 1889 165 1850 166 C 1807 166 1805 168 1802 198 L 1799 230 L 1849 230 C 1893 230 1900 233 1900 250 C 1900 268 1893 270 1820 270 L 1740 270 L 1740 140 z" stroke-linecap="round" />
</g>
<g transform="matrix(0.13 0 0 -0.13 586.32 593.9)"  >
<path style="stroke: none; stroke-width: 1; stroke-dasharray: none; stroke-linecap: butt; stroke-dashoffset: 0; stroke-linejoin: miter; stroke-miterlimit: 4; fill: rgb(0,0,0); fill-rule: nonzero; opacity: 1;" vector-effect="non-scaling-stroke"  transform=" translate(-2510.78, -140.5)" d="M 2374 141 L 2405 10 L 2437 10 C 2468 10 2469 11 2484 79 C 2493 118 2500 158 2500 169 C 2500 208 2517 199 2523 157 C 2526 134 2534 91 2540 63 C 2551 12 2553 10 2584 10 L 2616 10 L 2644 127 C 2660 192 2675 251 2678 258 C 2681 266 2672 270 2653 270 C 2624 270 2623 268 2611 198 C 2604 158 2596 112 2593 95 L 2587 65 L 2579 95 C 2575 112 2566 158 2560 198 L 2548 270 L 2516 270 L 2483 270 L 2465 170 C 2455 115 2444 73 2441 76 C 2438 79 2428 123 2420 173 C 2405 265 2405 265 2374 268 L 2343 271 L 2374 141 z" stroke-linecap="round" />
</g>
<g transform="matrix(0.13 0 0 -0.13 661.83 593.97)"  >
<path style="stroke: none; stroke-width: 1; stroke-dasharray: none; stroke-linecap: butt; stroke-dashoffset: 0; stroke-linejoin: miter; stroke-miterlimit: 4; fill: rgb(0,0,0); fill-rule: nonzero; opacity: 1;" vector-effect="non-scaling-stroke"  transform=" translate(-3075, -140)" d="M 2990 140 L 2990 10 L 3075 10 C 3153 10 3160 12 3160 30 C 3160 48 3153 50 3105 50 L 3050 50 L 3050 85 L 3050 120 L 3101 120 C 3148 120 3151 122 3148 143 C 3145 162 3139 165 3100 166 C 3057 166 3055 168 3052 198 L 3049 230 L 3099 230 C 3143 230 3150 233 3150 250 C 3150 268 3143 270 3070 270 L 2990 270 L 2990 140 z" stroke-linecap="round" />
</g>
<g transform="matrix(0.13 0 0 -0.13 741.83 593.97)"  >
<path style="stroke: none; stroke-width: 1; stroke-dasharray: none; stroke-linecap: butt; stroke-dashoffset: 0; stroke-linejoin: miter; stroke-miterlimit: 4; fill: rgb(0,0,0); fill-rule: nonzero; opacity: 1;" vector-effect="non-scaling-stroke"  transform=" translate(-3675, -140)" d="M 3590 140 L 3590 10 L 3675 10 C 3753 10 3760 12 3760 30 C 3760 48 3753 50 3705 50 L 3650 50 L 3650 84 C 3650 118 3651 119 3698 122 C 3737 125 3745 128 3745 145 C 3745 162 3738 165 3700 166 C 3657 166 3655 168 3652 198 L 3649 230 L 3699 230 C 3743 230 3750 233 3750 250 C 3750 268 3743 270 3670 270 L 3590 270 L 3590 140 z" stroke-linecap="round" />
</g>
<g transform="matrix(0.13 0 0 -0.13 628.69 598.75)"  >
<path style="stroke: none; stroke-width: 1; stroke-dasharray: none; stroke-linecap: butt; stroke-dashoffset: 0; stroke-linejoin: miter; stroke-miterlimit: 4; fill: rgb(0,0,0); fill-rule: nonzero; opacity: 1;" vector-effect="non-scaling-stroke"  transform=" translate(-2825, -105)" d="M 2800 105 C 2800 10 2800 10 2825 10 C 2850 10 2850 10 2850 105 C 2850 200 2850 200 2825 200 C 2800 200 2800 200 2800 105 z" stroke-linecap="round" />
</g>
</svg>